<?xml version="1.0" encoding="UTF-8" standalone="no"?>
<!-- Created with Inkscape (http://www.inkscape.org/) -->

<svg
   width="176.38887mm"
   height="176.38887mm"
   viewBox="0 0 176.38887 176.38887"
   version="1.1"
   id="svg1"
   xml:space="preserve"
   xmlns="http://www.w3.org/2000/svg"
   xmlns:svg="http://www.w3.org/2000/svg"><defs
     id="defs1" /><g
     id="g1"
     transform="matrix(0.26458332,0,0,0.26458332,3.8428519e-5,0)"><g
       id="group-R5"><path
         id="path7"
         d="M 2501.17,4541.41 C 4186.31,4542.65 4736.36,3094.94 4780.25,2299.1 4821.17,1557.35 4694.1,1008.89 4150,771.73 3895.1,660.621 3636.34,708.719 3363.89,756.832 3054.77,811.41 2728.04,865.992 2369.37,688.012 1694.57,353.18 759.082,647.629 397.098,1455.34 -96.6797,2557.09 530.598,4539.96 2501.17,4541.41"
         style="fill:#7dc6f8;fill-opacity:1;fill-rule:nonzero;stroke:none"
         transform="matrix(0.13333333,0,0,-0.13333333,0,666.66667)" /><path
         id="path8"
         d="m 2060.73,4073.44 c 0,-67.81 -54.97,-122.78 -122.77,-122.78 -67.81,0 -122.78,54.97 -122.78,122.78 0,67.81 54.97,122.77 122.78,122.77 67.8,0 122.77,-54.96 122.77,-122.77"
         style="fill:#faf0db;fill-opacity:1;fill-rule:nonzero;stroke:none"
         transform="matrix(0.13333333,0,0,-0.13333333,0,666.66667)" /><path
         id="path9"
         d="m 1231.81,2722.58 c 0,-67.81 -54.97,-122.77 -122.78,-122.77 -67.8,0 -122.772,54.96 -122.772,122.77 0,67.81 54.972,122.78 122.772,122.78 67.81,0 122.78,-54.97 122.78,-122.78"
         style="fill:#faf0db;fill-opacity:1;fill-rule:nonzero;stroke:none"
         transform="matrix(0.13333333,0,0,-0.13333333,0,666.66667)" /><path
         id="path10"
         d="m 4309.09,1023.67 c 0,-67.811 -54.97,-122.772 -122.78,-122.772 -67.81,0 -122.77,54.961 -122.77,122.772 0,67.8 54.96,122.77 122.77,122.77 67.81,0 122.78,-54.97 122.78,-122.77"
         style="fill:#faf0db;fill-opacity:1;fill-rule:nonzero;stroke:none"
         transform="matrix(0.13333333,0,0,-0.13333333,0,666.66667)" /><path
         id="path11"
         d="m 1353.24,1023.67 c 0,-67.811 -54.97,-122.772 -122.78,-122.772 -67.81,0 -122.77,54.961 -122.77,122.772 0,67.8 54.96,122.77 122.77,122.77 67.81,0 122.78,-54.97 122.78,-122.77"
         style="fill:#faf0db;fill-opacity:1;fill-rule:nonzero;stroke:none"
         transform="matrix(0.13333333,0,0,-0.13333333,0,666.66667)" /><path
         id="path12"
         d="m 4002.75,3024.86 c 0,-67.82 -54.97,-122.78 -122.77,-122.78 -67.82,0 -122.79,54.96 -122.79,122.78 0,67.8 54.97,122.77 122.79,122.77 67.8,0 122.77,-54.97 122.77,-122.77"
         style="fill:#faf0db;fill-opacity:1;fill-rule:nonzero;stroke:none"
         transform="matrix(0.13333333,0,0,-0.13333333,0,666.66667)" /><path
         id="path13"
         d="m 2382.61,4386.85 c 0,-28.76 -23.31,-52.07 -52.07,-52.07 -28.76,0 -52.08,23.31 -52.08,52.07 0,28.76 23.32,52.07 52.08,52.07 28.76,0 52.07,-23.31 52.07,-52.07"
         style="fill:#faf0db;fill-opacity:1;fill-rule:nonzero;stroke:none"
         transform="matrix(0.13333333,0,0,-0.13333333,0,666.66667)" /><path
         id="path14"
         d="m 3471.01,3972.75 c 0,-28.77 -23.31,-52.08 -52.07,-52.08 -28.76,0 -52.07,23.31 -52.07,52.08 0,28.76 23.31,52.07 52.07,52.07 28.76,0 52.07,-23.31 52.07,-52.07"
         style="fill:#faf0db;fill-opacity:1;fill-rule:nonzero;stroke:none"
         transform="matrix(0.13333333,0,0,-0.13333333,0,666.66667)" /><path
         id="path15"
         d="m 514.688,2416.32 c 0,-28.76 -23.309,-52.08 -52.075,-52.08 -28.758,0 -52.07,23.32 -52.07,52.08 0,28.76 23.312,52.08 52.07,52.08 28.766,0 52.075,-23.32 52.075,-52.08"
         style="fill:#faf0db;fill-opacity:1;fill-rule:nonzero;stroke:none"
         transform="matrix(0.13333333,0,0,-0.13333333,0,666.66667)" /><path
         id="path16"
         d="m 1899.08,1635.5 c 0,-28.76 -23.32,-52.08 -52.08,-52.08 -28.76,0 -52.07,23.32 -52.07,52.08 0,28.76 23.31,52.08 52.07,52.08 28.76,0 52.08,-23.32 52.08,-52.08"
         style="fill:#faf0db;fill-opacity:1;fill-rule:nonzero;stroke:none"
         transform="matrix(0.13333333,0,0,-0.13333333,0,666.66667)" /><path
         id="path17"
         d="m 3471.01,1837.14 c 0,-28.76 -23.31,-52.08 -52.07,-52.08 -28.76,0 -52.07,23.32 -52.07,52.08 0,28.76 23.31,52.07 52.07,52.07 28.76,0 52.07,-23.31 52.07,-52.07"
         style="fill:#faf0db;fill-opacity:1;fill-rule:nonzero;stroke:none"
         transform="matrix(0.13333333,0,0,-0.13333333,0,666.66667)" /><path
         id="path18"
         d="m 1451.54,1445.03 -5.3,5.3 -93,-93 -87.7,87.7 87.7,87.69 93,-93 5.3,5.31 -5.3,5.3 5.3,-5.3 5.31,5.3 -103.61,103.6 -108.91,-108.9 108.91,-108.91 108.91,108.91 -5.3,5.3 -5.31,-5.3"
         style="fill:#ebae3d;fill-opacity:1;fill-rule:nonzero;stroke:none"
         transform="matrix(0.13333333,0,0,-0.13333333,0,666.66667)" /><path
         id="path19"
         d="m 3445.27,1278.68 h -7.5 v -211.86 h 374.34 l -374.34,225.12 v -13.26 h 7.5 l -3.87,-6.43 316.66,-190.43 h -305.29 v 196.86 h -7.5 l -3.87,-6.43 3.87,6.43"
         style="fill:#5c7fc1;fill-opacity:1;fill-rule:nonzero;stroke:none"
         transform="matrix(0.13333333,0,0,-0.13333333,0,666.66667)" /><path
         id="path20"
         d="m 610.746,3024.86 h -7.5 c 0,-13.88 -5.601,-26.38 -14.691,-35.48 -9.102,-9.09 -21.594,-14.69 -35.473,-14.7 -13.879,0.01 -26.371,5.61 -35.473,14.7 -9.089,9.1 -14.687,21.6 -14.695,35.48 0.008,13.87 5.606,26.37 14.695,35.47 9.102,9.09 21.594,14.69 35.473,14.69 13.879,0 26.371,-5.6 35.473,-14.69 9.09,-9.1 14.691,-21.6 14.691,-35.47 h 7.5 7.5 c -0.004,35.99 -29.168,65.16 -65.164,65.16 -35.996,0 -65.16,-29.17 -65.168,-65.16 0.008,-36 29.172,-65.17 65.168,-65.18 35.996,0.01 65.16,29.18 65.164,65.18 h -7.5"
         style="fill:#56998a;fill-opacity:1;fill-rule:nonzero;stroke:none"
         transform="matrix(0.13333333,0,0,-0.13333333,0,666.66667)" /><path
         id="path21"
         d="m 4509.26,2648.68 h -7.5 c 0,-13.88 -5.6,-26.37 -14.69,-35.48 -9.1,-9.09 -21.6,-14.69 -35.47,-14.69 -13.88,0 -26.38,5.6 -35.48,14.69 -9.09,9.1 -14.68,21.6 -14.69,35.48 0.01,13.88 5.6,26.37 14.69,35.47 9.1,9.09 21.6,14.69 35.48,14.69 13.87,0 26.37,-5.6 35.47,-14.69 9.09,-9.1 14.69,-21.59 14.69,-35.47 h 7.5 7.5 c 0,35.99 -29.17,65.16 -65.16,65.16 -36,0 -65.16,-29.17 -65.17,-65.16 0.01,-36 29.17,-65.17 65.17,-65.17 35.99,0 65.16,29.17 65.16,65.17 h -7.5"
         style="fill:#d66767;fill-opacity:1;fill-rule:nonzero;stroke:none"
         transform="matrix(0.13333333,0,0,-0.13333333,0,666.66667)" /><path
         id="path22"
         d="m 2850.99,4334.78 -6.72,-3.32 27.14,-55 45.65,-6.63 -33.03,-32.2 7.79,-45.47 -40.83,21.47 -40.83,-21.47 7.8,45.47 -33.04,32.2 45.65,6.63 27.15,55 -6.73,3.32 -6.72,-3.32 6.72,3.32 -6.72,3.32 -23.66,-47.93 -67.92,-9.87 49.15,-47.91 -11.6,-67.64 60.75,31.93 60.75,-31.93 -11.6,67.64 49.16,47.91 -67.93,9.87 -30.38,61.55 -6.72,-13.62 6.72,-3.32"
         style="fill:#ebae3d;fill-opacity:1;fill-rule:nonzero;stroke:none"
         transform="matrix(0.13333333,0,0,-0.13333333,0,666.66667)" /><path
         id="path23"
         d="m 4462.36,1589.41 80.66,70.12 79.22,-81.12 97.45,88.98 76.57,-89.22 106.42,94.36 -9.95,11.22 -95.01,-84.25 -76.72,89.4 -98.17,-89.64 -78.97,80.87 -91.34,-79.4 9.84,-11.33"
         style="fill:#ebae3d;fill-opacity:1;fill-rule:nonzero;stroke:none"
         transform="matrix(0.13333333,0,0,-0.13333333,0,666.66667)" /><path
         id="path24"
         d="m 847.871,4040.5 80.66,70.12 79.219,-81.12 97.45,88.97 76.57,-89.21 106.42,94.35 -9.95,11.23 -95.02,-84.24 -76.71,89.38 -98.16,-89.62 -78.979,80.86 -91.34,-79.4 9.84,-11.32"
         style="fill:#d66767;fill-opacity:1;fill-rule:nonzero;stroke:none"
         transform="matrix(0.13333333,0,0,-0.13333333,0,666.66667)" /><path
         id="path25"
         d="M 3615.17,934.73 V 574.891 H 1415.06 c -40.07,0 -74.18,30.328 -86.95,72.738 -3.56,11.59 -5.48,24.121 -5.48,37.23 V 824.77 c 0,13.871 2.18,27.089 6.12,39.32 13.25,41.269 46.93,70.64 86.31,70.64 h 2200.11"
         style="fill:#5c7fc1;fill-opacity:1;fill-rule:nonzero;stroke:none"
         transform="matrix(0.13333333,0,0,-0.13333333,0,666.66667)" /><path
         id="path26"
         d="M 2156.23,934.738 H 3588.4 V 574.871 H 2156.23 c -74.96,0 -135.73,60.758 -135.73,135.731 v 88.41 c 0,74.957 60.77,135.726 135.73,135.726"
         style="fill:#3a61a0;fill-opacity:1;fill-rule:nonzero;stroke:none"
         transform="matrix(0.13333333,0,0,-0.13333333,0,666.66667)" /><path
         id="path27"
         d="m 3664.4,934.738 h -81.15 v -30.859 h 81.15 c 7.17,0 12.97,6.91 12.97,15.43 0,8.519 -5.8,15.429 -12.97,15.429"
         style="fill:#3a61a0;fill-opacity:1;fill-rule:nonzero;stroke:none"
         transform="matrix(0.13333333,0,0,-0.13333333,0,666.66667)" /><path
         id="path28"
         d="m 3664.4,605.762 h -81.15 v -30.871 h 81.15 c 7.17,0 12.97,6.91 12.97,15.429 0,8.52 -5.8,15.442 -12.97,15.442"
         style="fill:#3a61a0;fill-opacity:1;fill-rule:nonzero;stroke:none"
         transform="matrix(0.13333333,0,0,-0.13333333,0,666.66667)" /><path
         id="path29"
         d="m 2171.17,903.879 h 1444 V 605.73 H 2171.16 c -62.1,0 -112.45,50.34 -112.45,112.45 v 73.242 c 0,62.109 50.35,112.457 112.46,112.457"
         style="fill:#ffffff;fill-opacity:1;fill-rule:nonzero;stroke:none"
         transform="matrix(0.13333333,0,0,-0.13333333,0,666.66667)" /><path
         id="path30"
         d="m 2086.81,839.621 h 1528.36 v 10 H 2086.81 Z"
         style="fill:#cfd0d1;fill-opacity:1;fill-rule:nonzero;stroke:none"
         transform="matrix(0.13333333,0,0,-0.13333333,0,666.66667)" /><path
         id="path31"
         d="m 2071.56,780.23 h 1543.61 c 2.78,0 5.03,2.25 5.03,5.02 0,2.781 -2.25,5.02 -5.03,5.02 H 2071.56 c -2.78,0 -5.02,-2.239 -5.02,-5.02 0,-2.77 2.24,-5.02 5.02,-5.02"
         style="fill:#cfd0d1;fill-opacity:1;fill-rule:nonzero;stroke:none"
         transform="matrix(0.13333333,0,0,-0.13333333,0,666.66667)" /><path
         id="path32"
         d="m 2071.56,720.859 h 1543.61 c 2.78,0 5.03,2.25 5.03,5.032 0,2.769 -2.25,5.019 -5.03,5.019 H 2071.56 c -2.78,0 -5.02,-2.25 -5.02,-5.019 0,-2.782 2.24,-5.032 5.02,-5.032"
         style="fill:#cfd0d1;fill-opacity:1;fill-rule:nonzero;stroke:none"
         transform="matrix(0.13333333,0,0,-0.13333333,0,666.66667)" /><path
         id="path33"
         d="m 2092.36,661.5 h 1522.81 c 2.78,0 5.03,2.25 5.03,5.02 0,2.781 -2.25,5.019 -5.03,5.019 H 2092.36 c -2.77,0 -5.02,-2.238 -5.02,-5.019 0,-2.77 2.25,-5.02 5.02,-5.02"
         style="fill:#cfd0d1;fill-opacity:1;fill-rule:nonzero;stroke:none"
         transform="matrix(0.13333333,0,0,-0.13333333,0,666.66667)" /><path
         id="path34"
         d="m 3439.97,681.742 -84.88,44.719 -52.63,-44.719 -51.57,161.957 h 137.51 l 51.57,-161.957"
         style="fill:#d66767;fill-opacity:1;fill-rule:nonzero;stroke:none"
         transform="matrix(0.13333333,0,0,-0.13333333,0,666.66667)" /><path
         id="path35"
         d="m 2031,574.93 h -91.59 c -40.06,0 -74.11,30.25 -86.97,72.699 h 91.59 c 12.86,-42.449 46.9,-72.699 86.97,-72.699"
         style="fill:#ebae3d;fill-opacity:1;fill-rule:nonzero;stroke:none"
         transform="matrix(0.13333333,0,0,-0.13333333,0,666.66667)" /><path
         id="path36"
         d="m 1944.69,864.109 h -91.59 c 13.36,41.301 46.91,70.641 86.31,70.641 H 2031 c -39.41,0 -72.96,-29.34 -86.31,-70.641"
         style="fill:#ebae3d;fill-opacity:1;fill-rule:nonzero;stroke:none"
         transform="matrix(0.13333333,0,0,-0.13333333,0,666.66667)" /><path
         id="path37"
         d="m 1898.36,574.93 h -91.59 c -40.06,0 -74.1,30.25 -86.96,72.699 h 91.58 c 12.86,-42.449 46.91,-72.699 86.97,-72.699"
         style="fill:#ebae3d;fill-opacity:1;fill-rule:nonzero;stroke:none"
         transform="matrix(0.13333333,0,0,-0.13333333,0,666.66667)" /><path
         id="path38"
         d="m 1812.05,864.109 h -91.58 c 13.35,41.301 46.9,70.641 86.3,70.641 h 91.59 c -39.4,0 -72.95,-29.34 -86.31,-70.641"
         style="fill:#ebae3d;fill-opacity:1;fill-rule:nonzero;stroke:none"
         transform="matrix(0.13333333,0,0,-0.13333333,0,666.66667)" /><path
         id="path39"
         d="m 1938.59,684.898 c 0,-13.117 1.89,-25.648 5.44,-37.269 h -91.59 c -3.54,11.621 -5.44,24.152 -5.44,37.269 v 139.883 c 0,13.86 2.15,27.129 6.1,39.328 h 91.59 c -3.96,-12.199 -6.1,-25.468 -6.1,-39.328 V 684.898"
         style="fill:#ebae3d;fill-opacity:1;fill-rule:nonzero;stroke:none"
         transform="matrix(0.13333333,0,0,-0.13333333,0,666.66667)" /><path
         id="path40"
         d="m 1805.95,684.898 c 0,-13.117 1.9,-25.648 5.44,-37.269 h -91.58 c -3.55,11.621 -5.44,24.152 -5.44,37.269 v 139.883 c 0,13.86 2.14,27.129 6.1,39.328 h 91.58 c -3.95,-12.199 -6.1,-25.468 -6.1,-39.328 V 684.898"
         style="fill:#ebae3d;fill-opacity:1;fill-rule:nonzero;stroke:none"
         transform="matrix(0.13333333,0,0,-0.13333333,0,666.66667)" /><path
         id="path41"
         d="m 1567.53,574.93 h -91.59 c -40.06,0 -74.1,30.25 -86.96,72.699 h 91.58 c 12.86,-42.449 46.91,-72.699 86.97,-72.699"
         style="fill:#ebae3d;fill-opacity:1;fill-rule:nonzero;stroke:none"
         transform="matrix(0.13333333,0,0,-0.13333333,0,666.66667)" /><path
         id="path42"
         d="m 1481.22,864.109 h -91.58 c 13.35,41.301 46.9,70.641 86.3,70.641 h 91.59 c -39.4,0 -72.96,-29.34 -86.31,-70.641"
         style="fill:#ebae3d;fill-opacity:1;fill-rule:nonzero;stroke:none"
         transform="matrix(0.13333333,0,0,-0.13333333,0,666.66667)" /><path
         id="path43"
         d="m 1475.12,684.898 c 0,-13.117 1.9,-25.648 5.44,-37.269 h -91.58 c -3.55,11.621 -5.44,24.152 -5.44,37.269 v 139.883 c 0,13.86 2.14,27.129 6.1,39.328 h 91.58 c -3.96,-12.199 -6.1,-25.468 -6.1,-39.328 V 684.898"
         style="fill:#ebae3d;fill-opacity:1;fill-rule:nonzero;stroke:none"
         transform="matrix(0.13333333,0,0,-0.13333333,0,666.66667)" /><path
         id="path44"
         d="m 1591.81,2803.37 c -10.83,-22.55 -17.91,-47.54 -22.81,-72.02 -4.77,-24.35 -2.96,-51.15 10.57,-72.02 12.49,-19.59 33.75,-32.34 56.17,-38.53 22.42,-6.18 45.87,-6.57 69.19,-6.05 29.63,-23.58 69.06,-37.88 106.42,-31.96 37.36,6.06 71.89,28.48 92.76,60.18 14.05,-29.64 50.12,-38.01 82.46,-42.14 102.3,-12.88 207.82,0.91 303.42,39.56 86.32,-67 212.07,-80.01 311.53,-35.05 66.23,29.9 121.5,83.62 152.94,148.43 15.98,32.46 25.89,67.77 28.08,104.23 92.9,-67.64 226.76,-73.31 324.94,-13.53 105.9,-33.89 227.53,-3.48 300.96,80.01 73.58,83.36 92,211.17 44.97,312.05 39.68,36.07 49.35,105.9 31.96,156.67 -17.39,50.76 -66.74,89.03 -120.22,93.15 7.35,52.18 -15.33,111.19 -54.75,146.1 -39.29,35.05 -96.62,48.7 -147.65,35.31 -1.93,53.21 -41.36,104.74 -88.25,129.87 -46.91,24.99 -103.6,28.08 -155.26,15.33 -31.05,54.24 -85.81,93.66 -144.68,114.54 -59.02,20.74 -125.49,19.58 -183.61,-3.22 -30.79,22.42 -72.4,32.33 -110.15,27.7 -37.75,-4.64 -73.44,-24.1 -97.79,-53.35 -44.96,18.94 -99.72,19.08 -146.23,4.52 -46.51,-14.56 -87.61,-46 -113.77,-87.23 -23.06,10.7 -50.11,17.78 -77.3,19.84 -29.89,2.19 -60.04,-1.67 -85.29,-13.91 -48.19,-23.19 -85.04,-68.8 -97.66,-120.85 -44.2,7.85 -91.87,-26.42 -112.48,-66.23 -20.62,-39.94 -23.45,-86.32 -25.9,-131.16 -35.3,-18.29 -78.07,-43.29 -91.86,-80.52 -13.79,-37.23 -13.14,-79.75 1.68,-116.6 -61.33,-40.07 -93.29,-124.2 -75.63,-195.32 -37.63,-43.55 -57.46,-105.78 -51.02,-162.98 6.56,-57.08 37.87,-110.94 84.26,-144.82"
         style="fill:#d66767;fill-opacity:1;fill-rule:nonzero;stroke:none"
         transform="matrix(0.13333333,0,0,-0.13333333,0,666.66667)" /><path
         id="path45"
         d="m 2613.89,2852.01 c -3.3,1.91 -7.18,1.88 -10.62,-0.1 -10.5,-6.03 -21.76,-10.56 -33.44,-13.45 -44.77,-11.09 -91.96,-1.56 -137.59,7.66 l -41.81,8.32 c -0.83,0.86 -1.79,1.56 -2.9,2.11 -62.65,30.6 -108.55,89.58 -122.82,157.78 -0.8,3.76 -3.23,6.57 -6.68,7.7 -3.72,1.22 -8.16,0.24 -11.23,-2.51 -2.97,-2.67 -4.21,-6.49 -3.36,-10.47 11.69,-55.88 43.53,-107 88.52,-143.01 l -262.59,52.08 c -6.64,1.32 -13.33,2.59 -20.05,3.87 -42.26,8.05 -85.96,16.36 -123.57,37.03 -88.68,48.74 -97.66,161.78 -95.59,254.81 1.26,56.59 8.87,113.09 22.63,167.96 21.01,-41.05 56.83,-73.57 99.88,-90.25 5.48,-2.09 10.96,0.33 13.11,5.82 2.07,5.36 0.25,12.45 -6.4,15.02 -45.74,17.72 -81.93,56.32 -97.06,103.42 8.6,27.31 23.65,65.65 54.89,89.61 39.45,30.23 95.2,30.28 134.2,20.24 21.93,-5.65 74.12,-24.09 87.05,-73.49 -21.72,-6.36 -42.85,-14.39 -62.91,-23.89 -5.33,-2.54 -7.35,-8.28 -4.8,-13.66 2.44,-5.14 8.75,-8.68 15.19,-5.64 37.5,17.77 77.76,29.61 119.75,35.2 2.74,-45.75 17.04,-89.96 41.48,-128.15 3.85,-6.03 10.84,-6.13 15.43,-3.19 5.19,3.32 6.58,9.45 3.29,14.57 -22.86,35.71 -36.1,76.83 -38.41,119.16 45.15,3.6 90.03,-0.21 133.48,-11.33 5.33,-17.72 11.9,-34.7 19.52,-50.5 1.66,-3.44 4.66,-5.56 8.23,-5.83 3.85,-0.24 7.93,1.75 10.27,5.17 2.27,3.35 2.55,7.4 0.76,11.09 -28.21,58.44 -38.18,125.83 -28.08,189.76 1.11,7.09 -4.12,12.25 -9.85,13.16 -5.69,0.9 -10.6,-2.59 -11.5,-8.34 -6.86,-43.44 -5.37,-87.33 4.41,-130.56 -29.25,6.6 -59.26,10.11 -89.36,10.45 -19.63,48.08 -20.08,103.6 -1.14,152.83 2.1,5.48 -0.38,10.99 -5.88,13.1 -5.34,2.04 -12.43,0.21 -14.97,-6.43 -19.61,-50.98 -19.92,-107.5 -1,-159.88 -27.85,-1.16 -55.61,-5.02 -82.71,-11.51 -2.81,10.84 -7.13,20.87 -12.89,29.85 -21.59,33.6 -62.54,56.8 -112.36,63.65 l -2.23,0.24 c -6.32,25.47 -3.94,52.82 6.92,79.29 24.1,58.7 80.02,85.91 111.21,96.9 55.38,19.53 116.08,19.3 173.4,16.16 4.03,-0.29 7.21,1.42 9.2,4.46 2.16,3.31 2.36,7.83 0.5,11.51 -1.8,3.55 -5.15,5.71 -9.2,5.93 -29.85,1.64 -54.39,1.98 -77.02,0.97 -0.83,0.62 -1.72,1.1 -2.72,1.47 l -79.93,29.09 c -5.56,2.03 -11.1,-0.59 -13.14,-6.2 -1.96,-5.34 0,-12.31 6.62,-14.72 l 39.57,-14.4 c -43.69,-7.15 -99.89,-24.76 -141.81,-67.34 -38.26,-38.85 -55.71,-92.5 -46.33,-141.37 -6.27,0.12 -12.99,-0.12 -20.41,-0.68 l -2.06,0.32 c -53.63,0.81 -106.14,16.22 -151.86,44.59 -5.2,3.23 -11.38,1.73 -14.65,-3.56 -3.35,-5.41 -1.91,-11.96 3.38,-15.25 32.26,-20 67.32,-33.9 104.44,-41.39 -14.39,-6.76 -26.98,-15.48 -37.59,-26.05 -2.94,-2.93 -5.58,-6.09 -8.22,-9.26 l -0.31,-0.38 c -1.11,-0.58 -2.11,-1.35 -2.99,-2.31 -31.1,-34.41 -68.5,-61.35 -111.16,-80.09 -3.45,-1.5 -5.64,-4.35 -6.02,-7.81 -0.41,-3.81 1.48,-7.88 4.84,-10.34 3.3,-2.43 7.55,-2.9 11.3,-1.25 24.58,10.79 47.91,24.57 69.6,41.08 -8.79,-22.94 -14.8,-46.82 -20,-69.58 -13.5,-59.19 -20.12,-119.86 -19.68,-180.33 0.36,-47.37 3.44,-102.69 23.67,-153.72 19.07,-48.13 53.13,-84.39 98.45,-104.86 41.12,-18.57 86.49,-26.97 130.36,-35.08 10.19,-1.88 20.33,-3.76 30.38,-5.75 l 187.25,-37.13 c 18.67,-3.71 37.33,-7.54 56.01,-11.37 41.25,-8.45 83.88,-17.19 126.06,-24.45 1.97,-0.35 3.99,-0.65 5.99,-0.95 l 1.78,-0.27 c 33.26,-23.84 57.85,-58.83 69.26,-98.53 1.11,-3.82 3.86,-6.55 7.58,-7.48 0.91,-0.22 1.83,-0.33 2.74,-0.33 3.12,0 6.22,1.26 8.38,3.49 2.62,2.73 3.5,6.46 2.4,10.24 -9.5,33.1 -27.31,63.29 -51.82,88.04 44.28,-3.08 78.67,3.44 107.71,20.16 3.43,1.97 5.4,5.27 5.41,9.05 0,4.05 -2.26,7.98 -5.78,10.01"
         style="fill:#bd504d;fill-opacity:1;fill-rule:nonzero;stroke:none"
         transform="matrix(0.13333333,0,0,-0.13333333,0,666.66667)" /><path
         id="path46"
         d="m 3028.27,3088.52 c -4.2,0.32 -7.61,-1.51 -9.88,-4.89 -11.67,-17.32 -28.93,-31.16 -51.26,-41.13 -37.38,-16.69 -79.18,-19.36 -119.6,-21.93 -47.48,-3.03 -96.52,-6.15 -140.09,-32.12 -11.94,12.43 -24.95,24.07 -38.77,34.64 -15.15,11.61 -31.34,22.15 -49.37,32.14 10.18,14.11 23.48,27.62 40.49,41.17 11.43,9.09 23.64,17.71 35.45,26.05 21.13,14.93 42.99,30.36 61.64,49.34 31.49,32.05 53.03,74.34 60.64,119.09 0.68,4.09 -0.75,7.94 -3.92,10.57 -3.18,2.65 -7.6,3.5 -11.24,2.15 -3.3,-1.23 -5.55,-4.07 -6.19,-7.79 -4.3,-25.31 -12.9,-49 -25.55,-70.39 -21.5,-36.37 -54.49,-61.47 -89.28,-86.07 -26.55,-18.79 -59.39,-42.02 -81.67,-73.85 -56.55,27.91 -118.86,44.53 -167.95,55.94 3.15,54.4 -8.87,108.63 -34.87,157.08 -2.86,5.37 -8.93,7.14 -14.38,4.21 -4.8,-2.57 -8.08,-8.7 -4.71,-14.98 23.17,-43.16 34.25,-91.94 32.17,-141.39 -13.15,2.92 -26.28,5.73 -39.31,8.5 -73.97,15.68 -131.37,23.96 -185.53,26.75 -24.44,47.63 -38.73,98.8 -42.43,152.11 -0.5,7 -6.63,10.69 -12.24,10.36 -6.02,-0.42 -10.08,-5.04 -9.66,-10.99 3.65,-52.43 16.97,-103.07 39.61,-150.65 -41.84,0.83 -80.51,-2.07 -117.83,-8.74 -2.19,22.25 -9.07,43.73 -20.01,62.4 -2.01,3.42 -5.01,5.77 -9.15,5.35 -4.05,-0.03 -7.96,-2.32 -9.97,-5.83 -1.87,-3.31 -1.8,-7.17 0.2,-10.59 10.93,-18.67 17.05,-40.38 17.73,-61.84 -0.27,-1.56 -0.26,-3.05 0.05,-4.45 0.01,-15.56 -2.55,-30.61 -7.58,-44.73 -1.31,-3.61 -0.72,-7.25 1.61,-9.98 2.52,-2.99 6.8,-4.47 10.88,-3.7 3.98,0.72 7.05,3.35 8.43,7.21 5,14 7.87,28.8 8.52,44.06 53.85,10.04 111.78,11.88 176.94,5.62 31.11,-3 64.01,-7.88 103.43,-15.35 33.24,-25.79 62.06,-56.04 85.66,-89.93 2.34,-3.36 5.82,-5.1 10.05,-4.77 4.12,0.35 7.87,2.87 9.53,6.41 1.53,3.24 1.14,6.89 -1.05,10.03 -17.41,25.01 -37.76,48.35 -60.62,69.56 5.44,-1.15 10.88,-2.31 16.32,-3.5 50.09,-11 103.19,-23.24 153.1,-41.29 72.93,-26.37 168.25,-78.01 208.18,-174.21 1.58,-3.81 4.99,-6.4 9.11,-6.94 l 1.59,-0.1 c 3.59,0 7.02,1.56 9.04,4.21 2.1,2.73 2.48,6.28 1.04,9.74 -10.28,24.75 -24.81,48.48 -43.23,70.61 19.34,10.77 42.28,18.01 69.93,22.07 18.17,2.67 37.33,4 57.64,5.41 67.84,4.69 144.72,10.02 187.09,72.91 2.16,3.19 2.49,6.89 0.9,10.14 -1.73,3.53 -5.51,6.01 -9.63,6.3"
         style="fill:#bd504d;fill-opacity:1;fill-rule:nonzero;stroke:none"
         transform="matrix(0.13333333,0,0,-0.13333333,0,666.66667)" /><path
         id="path47"
         d="m 3357.27,3292.35 c -9.73,32.54 -34.4,55.96 -63.63,60.9 4.38,35.87 -1.45,71.55 -16.96,103.46 -14.81,30.47 -37.51,56.32 -65.66,74.74 -21.67,14.17 -45.89,23.65 -69.3,32.82 -10.4,4.07 -20.79,8.13 -30.98,12.6 -12.35,5.42 -24.65,12.19 -37.21,20.51 46.38,-9.11 95.11,-14.82 143.31,-5.93 5.8,1.08 9.24,6.11 8.16,11.96 -1.04,5.61 -6.25,10.64 -13.24,9.36 -60.31,-11.11 -123.02,3.03 -178.48,15.7 l -1.41,1.23 c -3.89,3.4 -7.76,6.79 -11.57,10.37 l -8.62,8.13 c -23.72,22.38 -48.25,45.53 -75.94,64.52 -113.71,77.89 -267.56,104.05 -457.29,77.76 -13.58,28.36 -28.77,52.47 -46.38,73.62 -3.79,4.53 -9.82,5.06 -14.38,1.26 -4.4,-3.65 -6.22,-10.7 -1.69,-16.15 22.8,-27.38 41.55,-60.58 57.33,-101.51 14.33,-37.17 25.11,-77.62 35.52,-116.75 24.32,-91.26 49.46,-185.62 121.88,-252.65 5.22,-4.84 12,-3.2 15.71,0.78 4.19,4.54 4.01,10.83 -0.47,14.97 -25.15,23.28 -46.83,53.37 -64.46,89.46 l -0.1,0.25 c 29.95,33.57 79.37,49.24 135.97,43.04 46.8,-5.12 95.73,-21.19 141.53,-46.46 44.09,-24.34 78.37,-55.54 101.88,-92.72 24.82,-39.25 36.17,-83.6 31.96,-124.85 -4.38,-43.14 -25.22,-82.52 -57.14,-108.04 -4.54,-3.64 -5.19,-9.59 -1.55,-14.15 3.62,-4.51 10.69,-6.52 16.31,-2.03 39.59,31.65 63.96,83.32 65.18,138.21 0.06,2.88 0.05,5.79 -0.04,8.76 27.86,-47.17 59.85,-91.78 95.28,-132.84 2.5,-2.9 5.93,-4.18 9.49,-3.51 3.85,0.73 7.22,3.73 8.59,7.63 1.33,3.82 0.56,7.78 -2.13,10.89 -52.14,60.43 -96.07,127.98 -130.64,200.91 55.21,-22.65 114.97,-29.04 173.59,-18.49 5.79,1.04 9.24,6.04 8.19,11.89 -1.01,5.62 -6.28,10.69 -13.22,9.43 -61.98,-11.17 -126.99,-1.32 -183.09,27.69 -0.96,0.49 -1.94,0.82 -2.98,1.01 -27.41,41.95 -69,78.62 -117.92,104.07 19.83,12.9 37.04,29.69 50.06,48.97 1.56,2.3 2.06,5.16 1.41,8.04 -0.69,3.02 -2.61,5.72 -5.18,7.21 -5.03,2.92 -11.41,1.37 -14.84,-3.68 -13.81,-20.44 -32.83,-37.5 -54.98,-49.33 -43.87,19.59 -86.14,30.95 -125.84,33.84 15.43,16.55 26.16,36.49 31.22,58.21 1.62,6.96 -3.16,12.03 -8.46,13.27 -6.08,1.45 -11.4,-1.88 -12.76,-7.8 -5.67,-24.31 -19.39,-45.8 -38.65,-60.51 -1.05,-0.81 -1.97,-1.76 -2.71,-2.81 -43.43,-2.5 -81.46,-18.18 -108.12,-44.45 -18.08,42.62 -30.37,88.55 -42.26,133.03 -11.76,43.94 -23.89,89.3 -41.62,131.56 93.09,12.53 173.99,12.2 247.07,-0.97 1.43,-1.87 3.5,-3.15 6.02,-3.68 76.54,-16.33 142.44,-74.37 167.89,-147.86 2.28,-6.58 9.12,-8.64 14.46,-6.8 5.73,1.97 8.46,7.53 6.51,13.19 -14.62,42.21 -40.92,79.99 -75.53,109.18 32.02,-14.18 61.23,-31.35 87.14,-51.27 17.83,-13.7 34.42,-29.53 50.49,-44.83 9.64,-9.19 19.29,-18.38 29.24,-27.21 27.03,-23.96 55.55,-42.07 87.19,-55.39 7.99,-3.35 16.09,-6.53 24.19,-9.69 23.99,-9.4 48.8,-19.13 70.24,-33.86 25.79,-17.73 46.67,-43.91 58.8,-73.73 24.65,-60.59 9.51,-132.63 -37.64,-179.25 -4.34,-4.3 -4.32,-10.86 0.06,-15.29 4.39,-4.47 11.03,-4.58 15.4,-0.25 24.75,24.5 42.11,55.49 50.31,89.86 30.5,-4.4 50.15,-38.19 49.55,-68.35 -0.77,-39.04 -27.49,-73.88 -47.52,-96.68 -6.28,-7.17 -12.78,-14.18 -19.28,-21.19 -18.63,-20.09 -37.88,-40.86 -52.06,-65.24 -13.58,-23.38 -22.35,-50.46 -30.83,-76.64 -14.18,-43.79 -28.86,-89.07 -66.45,-117.13 -3.33,-2.48 -4.96,-6.29 -4.47,-10.43 0.48,-4.13 3.07,-7.79 6.61,-9.31 1.19,-0.51 2.43,-0.76 3.67,-0.76 2.1,0 4.22,0.73 6.11,2.14 36.58,27.3 54.48,68.66 67.18,105.52 2.16,6.26 4.25,12.55 6.34,18.83 11.67,35.09 22.7,68.23 44.5,97.32 10.98,14.65 23.7,28.37 36.02,41.64 10.79,11.64 21.85,23.57 31.96,36.34 -9.01,-53.96 -11.95,-108.62 -8.71,-162.77 0.42,-7.21 6.41,-10.76 12.05,-10.42 6.06,0.37 10.21,4.98 9.84,10.96 -4.62,77.59 3.44,154.8 23.96,229.53 0.49,1.8 0.49,3.62 0.02,5.41 4.08,18.39 3.75,35.77 -1,51.68"
         style="fill:#bd504d;fill-opacity:1;fill-rule:nonzero;stroke:none"
         transform="matrix(0.13333333,0,0,-0.13333333,0,666.66667)" /><path
         id="path48"
         d="m 2322.43,2772.92 c -31.43,16.9 -70.01,25.12 -114.27,24.76 -32.38,-0.33 -64.8,-5.02 -96.16,-9.55 -13.39,-1.93 -26.77,-3.87 -40.17,-5.47 l -0.47,-0.09 c -2.37,-0.01 -5.22,-0.46 -7.14,-0.93 l -0.02,0.1 c -33.98,-3.73 -60.33,-4.05 -85.39,-1.03 -18.98,2.3 -38.61,6.24 -57.61,10.05 -51.86,10.39 -105.52,21.17 -157.61,2.07 -6.63,-2.42 -8.57,-9.39 -6.61,-14.74 2.04,-5.59 7.56,-8.22 13.14,-6.16 38.78,14.2 80.34,9.64 115.86,3.31 10.22,-1.83 20.41,-3.85 30.6,-5.88 24.11,-4.79 49.05,-9.74 74.1,-11.83 8.99,-0.75 18.35,-1.13 28.28,-0.97 -22.1,-9.96 -45.23,-16.79 -68.99,-20.37 -10.23,-1.53 -20.9,-2.4 -31.23,-3.23 -31.5,-2.56 -64.09,-5.19 -90.84,-26.96 -2.94,-2.38 -4.3,-5.74 -3.75,-9.21 0.61,-3.81 3.51,-7.24 7.4,-8.72 1.36,-0.52 2.73,-0.77 4.1,-0.77 2.51,0 4.96,0.87 7.05,2.57 22.44,18.25 52.78,20.33 82.14,22.33 12.8,0.88 26.02,1.78 38.3,4.04 37.59,6.89 74.63,22.05 107.17,43.88 11.55,1.34 23.07,2.93 34.54,4.61 l 9.06,1.33 c 67.49,9.97 137.29,20.27 197.73,-12.22 3.55,-1.91 7.49,-1.83 10.83,0.24 3.49,2.16 5.66,6.13 5.54,10.13 -0.12,3.7 -2.16,6.88 -5.58,8.71"
         style="fill:#bd504d;fill-opacity:1;fill-rule:nonzero;stroke:none"
         transform="matrix(0.13333333,0,0,-0.13333333,0,666.66667)" /><path
         id="path49"
         d="m 1809.67,2874.76 c 3.49,2.17 5.64,6.15 5.5,10.14 -0.13,3.69 -2.17,6.85 -5.6,8.68 -20.66,10.98 -44.33,15.61 -68.66,13.44 -10.85,24.93 -19.83,50.76 -26.72,76.83 -26.07,98.7 -24.03,202.23 5.89,299.38 1.15,3.74 0.37,7.45 -2.17,10.17 -2.72,2.92 -7.02,4.24 -11.06,3.32 -3.79,-0.87 -6.65,-3.57 -7.83,-7.4 -8.87,-28.82 -15.46,-58.59 -19.55,-88.48 -5.18,-37.85 -6.47,-76.64 -3.85,-115.31 l -0.56,-1.37 c -5.81,-19.63 -17.04,-37.33 -32.47,-51.2 -2.1,-1.88 -3.29,-4.55 -3.37,-7.5 -0.07,-3.1 1.09,-6.08 3.18,-8.18 4.13,-4.11 10.85,-4.17 15.34,-0.17 8.53,7.69 16.07,16.66 22.49,26.8 6.88,-48.71 19.89,-95.95 38.75,-140.67 -27.73,-7.3 -51.92,-23.27 -68.53,-45.36 -3.48,-4.64 -2.64,-10.54 1.99,-14.04 2.07,-1.56 4.7,-2.46 7.36,-2.46 3.28,0 6.61,1.38 9.01,4.56 28.93,38.48 87.28,51.27 130.02,28.53 3.54,-1.89 7.51,-1.81 10.84,0.29"
         style="fill:#bd504d;fill-opacity:1;fill-rule:nonzero;stroke:none"
         transform="matrix(0.13333333,0,0,-0.13333333,0,666.66667)" /><path
         id="path50"
         d="m 3422,3277.05 c -2.34,0 -4.64,0.55 -6.52,1.64 -6.52,3.82 -7.41,11.19 -4.6,17.54 15.04,34.03 9.4,77.29 -13.83,106.34 -4.33,5.4 -5.29,12.85 0,18.13 2.34,2.35 6.01,3.73 9.6,3.73 3.27,0 6.46,-1.14 8.53,-3.73 31.13,-38.93 37.99,-91.81 17.85,-137.41 -1.84,-4.18 -6.5,-6.24 -11.03,-6.24"
         style="fill:#de8585;fill-opacity:1;fill-rule:nonzero;stroke:none"
         transform="matrix(0.13333333,0,0,-0.13333333,0,666.66667)" /><path
         id="path51"
         d="m 2931.66,3289.72 c -5.15,0 -10.4,2.62 -12.67,8.68 -32.31,86.27 -115.6,141.1 -205.86,141.1 -7.4,0 -14.82,-0.37 -22.28,-1.12 -0.51,-0.05 -1.01,-0.07 -1.48,-0.07 -14.91,0 -14.31,24.13 1.48,25.71 8.05,0.81 16.07,1.2 24.02,1.2 101.29,0 192.95,-64.13 228.85,-160 3.5,-9.36 -4.17,-15.5 -12.06,-15.5"
         style="fill:#de8585;fill-opacity:1;fill-rule:nonzero;stroke:none"
         transform="matrix(0.13333333,0,0,-0.13333333,0,666.66667)" /><path
         id="path52"
         d="m 2599.32,2957.18 c -27.99,23.55 -61.18,40.86 -97.11,50.01 -14.77,3.75 -10.1,25.17 3.34,25.17 1.1,0 2.26,-0.14 3.48,-0.45 48.45,-12.33 92.76,-38.5 127.33,-74.23 -12.16,-0.19 -24.54,-0.36 -37.04,-0.5"
         style="fill:#de8585;fill-opacity:1;fill-rule:nonzero;stroke:none"
         transform="matrix(0.13333333,0,0,-0.13333333,0,666.66667)" /><path
         id="path53"
         d="m 2850.07,3797.41 c -2.89,0 -5.85,1.25 -8.39,4.27 -36.73,43.57 -91.93,68.06 -147.84,68.06 -19.18,0 -38.44,-2.88 -57.08,-8.86 -1.44,-0.46 -2.81,-0.68 -4.1,-0.68 -12.69,0 -16.95,20.84 -2.71,25.4 20.66,6.63 42.18,9.83 63.69,9.83 62.73,0 125.34,-27.18 166.17,-75.62 8.06,-9.55 -0.5,-22.4 -9.74,-22.4"
         style="fill:#de8585;fill-opacity:1;fill-rule:nonzero;stroke:none"
         transform="matrix(0.13333333,0,0,-0.13333333,0,666.66667)" /><path
         id="path54"
         d="m 2103.65,3621.42 c -9.69,0 -18.39,12.86 -9.61,22.04 43.66,45.58 105.6,70.75 167.98,70.75 19.97,0 39.97,-2.58 59.45,-7.89 14.62,-3.99 10.09,-25.24 -3.16,-25.24 -1.15,0 -2.38,0.16 -3.66,0.51 -17.34,4.73 -35.13,7.03 -52.85,7.03 -55.61,0 -110.62,-22.58 -149.62,-63.29 -2.64,-2.75 -5.63,-3.91 -8.53,-3.91"
         style="fill:#de8585;fill-opacity:1;fill-rule:nonzero;stroke:none"
         transform="matrix(0.13333333,0,0,-0.13333333,0,666.66667)" /><path
         id="path55"
         d="M 3132.25,2167.3 C 2967.7,2028.36 2875.18,1822.17 2875.18,1606.84 v -1.48 c 0,-176.12 -142.83,-318.83 -318.93,-318.83 h -122.37 c -36.02,0 -70.67,5.95 -102.92,16.92 -125.67,42.78 -216.01,161.82 -216.01,301.91 v 1.48 c 0,218.54 -98.35,423.92 -264.17,566.41 -210.87,181.37 -344.44,449.99 -344.44,749.94 0,45.98 3.09,91.14 9.27,135.4 0,0 158.15,-102.01 977.51,-102.01 819.25,0 981.29,102.01 981.29,102.01 5.37,-38.08 8.35,-76.73 9.15,-115.96 6.05,-311.16 -131.74,-590.19 -351.31,-775.33"
         style="fill:#ebae3d;fill-opacity:1;fill-rule:nonzero;stroke:none"
         transform="matrix(0.13333333,0,0,-0.13333333,0,666.66667)" /><path
         id="path56"
         d="m 2431.09,2588.8 c 9.86,11.7 11.56,-18.88 11.65,-23.44 0.23,-11.33 -0.72,-23.24 -6.37,-33.34 l -1.36,-2.15 c -5.71,8.51 -8.68,18.76 -9.21,28.93 -0.44,8.52 -0.72,22.87 5.29,30 z m 65,-58.73 c -5.96,8.54 -8.62,19.16 -8.1,29.51 0.4,7.79 3.21,21.95 10.57,26.64 8.09,5.16 8.46,-7.5 8.93,-13.02 0.56,-6.44 0.67,-13.01 -0.07,-19.43 -1.07,-9.26 -4.08,-18.33 -9.35,-26.02 z m 68.29,9.96 c -5.09,9.93 -8.63,24.03 -6.05,35.22 1.52,6.61 5.78,11.14 12.11,5.82 4.04,-3.4 5.92,-9.22 6.99,-14.2 2.6,-12.15 -0.23,-25.3 -7.04,-35.69 -2.35,2.71 -4.4,5.69 -6.01,8.85 z m -332.71,-9.4 c 49.28,0.94 98.55,1.89 147.82,2.83 -0.62,-14.25 10.26,-27.75 24.29,-31.47 11.06,-2.93 22.11,0.63 30.99,7.29 l 1.09,-0.96 c 20.21,-15.69 45.19,-14.2 62.9,-0.23 22.3,-15.27 52.88,-13.63 72.94,3.48 10.43,-6.42 23.25,-9.25 35.03,-5.48 13.23,4.22 23.36,15.57 25.33,29.07 43.45,-1.97 86.97,-0.81 130.26,3.51 8.98,0.9 9.04,15.03 0,14.12 -43.64,-4.35 -87.52,-5.51 -131.33,-3.47 -1.77,0.09 -3.1,-0.49 -4.19,-1.32 -4.06,0.92 -8.79,-1.18 -8.53,-6.5 0.64,-13.62 -11.41,-23.91 -24.74,-22.89 -4.34,0.33 -8.41,1.68 -12.13,3.66 8.7,12.58 12.58,28.47 10.46,43.62 -1.92,13.76 -10.44,31.99 -26.76,32 -15.54,0.01 -21.63,-16.6 -21.56,-29.69 0.09,-16.8 5.75,-34.96 17.25,-47.52 -2.38,-1.87 -4.89,-3.58 -7.65,-4.9 -13.91,-6.63 -31.15,-5.29 -44.29,2.62 2.41,3.24 4.54,6.82 6.32,10.72 7.67,16.79 9.36,38.93 4.67,56.82 -4.15,15.83 -20.13,21.91 -32.12,9.36 -19.99,-20.9 -17.54,-56.6 0.59,-77.88 -13.31,-9.46 -30.55,-8.09 -43.58,1.82 1.14,1.48 2.23,3 3.18,4.57 10.27,17.01 11.07,40.87 7.44,59.97 -2.83,14.89 -18.15,30.77 -32.63,16.89 -11.64,-11.17 -12.26,-32.81 -10.55,-47.65 1.42,-12.17 5.67,-23.83 12.85,-33.48 -4.38,-2.97 -9.4,-4.79 -14.69,-4.37 -10.76,0.85 -19.45,11.67 -15.79,22.13 1.31,3.75 -0.6,6.47 -3.36,7.75 -1.12,1.57 -2.87,2.71 -5.42,2.66 -51.37,-0.99 -102.73,-1.97 -154.09,-2.95 -9.1,-0.18 -9.1,-14.3 0,-14.13"
         style="fill:#ffffff;fill-opacity:1;fill-rule:nonzero;stroke:none"
         transform="matrix(0.13333333,0,0,-0.13333333,0,666.66667)" /><path
         id="path57"
         d="m 2182.13,2600.44 0.09,-0.14 c 4.85,-7.55 194.81,-305.63 194.84,-1056.15 0,-96.91 -3.18,-201.37 -10.32,-313.72 -0.36,-5.57 3.87,-10.37 9.44,-10.72 5.57,-0.36 10.37,3.87 10.73,9.44 7.17,112.76 10.35,217.65 10.35,315 0.03,765.88 -197.14,1065.77 -198.27,1067.43 -3.08,4.65 -9.34,5.93 -14,2.86 -4.66,-3.08 -5.94,-9.34 -2.86,-14"
         style="fill:#ffffff;fill-opacity:1;fill-rule:nonzero;stroke:none"
         transform="matrix(0.13333333,0,0,-0.13333333,0,666.66667)" /><path
         id="path58"
         d="m 2787.19,2611.58 c -1.13,-1.66 -198.31,-301.56 -198.28,-1067.44 0,-97.35 3.18,-202.23 10.36,-314.99 0.35,-5.57 5.15,-9.8 10.72,-9.44 5.57,0.35 9.8,5.15 9.45,10.72 -7.15,112.35 -10.32,216.8 -10.32,313.71 0,381.22 49.04,645.71 97.9,814.69 24.44,84.49 48.84,145.1 67.05,184.48 9.11,19.69 16.67,34.08 21.93,43.49 2.62,4.7 4.67,8.17 6.05,10.43 0.68,1.13 1.2,1.95 1.54,2.49 l 0.37,0.58 0.09,0.14 c 3.08,4.66 1.8,10.92 -2.86,14 -4.66,3.07 -10.93,1.79 -14,-2.86"
         style="fill:#ffffff;fill-opacity:1;fill-rule:nonzero;stroke:none"
         transform="matrix(0.13333333,0,0,-0.13333333,0,666.66667)" /><path
         id="path59"
         d="m 2556.25,1286.53 h -122.37 c -14.74,0 -29.26,1 -43.47,2.93 4.72,90.08 6.85,174.91 6.85,254.69 0.01,49.18 -0.8,96.43 -2.32,141.81 31.88,-24.42 76.44,-41.17 143.12,-47.44 11.53,-1.08 22.52,-1.61 33.01,-1.61 6.46,0 12.74,0.2 18.83,0.6 -0.65,-30.32 -0.99,-61.44 -0.99,-93.37 0,-79.92 2.14,-164.91 6.88,-255.18 -12.96,-1.6 -26.15,-2.43 -39.54,-2.43"
         style="fill:#e7a22d;fill-opacity:1;fill-rule:nonzero;stroke:none"
         transform="matrix(0.13333333,0,0,-0.13333333,0,666.66667)" /><path
         id="path60"
         d="m 2615.87,1292.09 c -4.65,89.15 -6.75,173.11 -6.75,252.05 0,32.67 0.36,64.5 1.05,95.46 248.35,35.93 164.33,422.21 374.45,532.97 155.76,82.09 297.55,205.03 407.34,334.14 -61.07,-131.39 -150.26,-247.12 -259.71,-339.41 v 0 C 2967.7,2028.36 2875.18,1822.17 2875.18,1606.84 v -1.48 c 0,-155.74 -111.7,-285.35 -259.31,-313.27"
         style="fill:#e7a22d;fill-opacity:1;fill-rule:nonzero;stroke:none"
         transform="matrix(0.13333333,0,0,-0.13333333,0,666.66667)" /><path
         id="path61"
         d="m 2370.35,1292.84 c -13.47,2.71 -26.61,6.27 -39.39,10.61 -125.67,42.78 -216.01,161.82 -216.01,301.91 v 1.48 0 c 0,218.54 -98.35,423.92 -264.17,566.41 v 0 c -82.22,70.78 -152.66,154.73 -208.01,248.72 104.75,-95.49 226.54,-186.4 359.31,-249.4 322.34,-152.85 271.42,-361.14 371.95,-467.74 1.96,-51.08 3.02,-104.61 3.03,-160.68 0,-78.73 -2.1,-162.44 -6.71,-251.31"
         style="fill:#e7a22d;fill-opacity:1;fill-rule:nonzero;stroke:none"
         transform="matrix(0.13333333,0,0,-0.13333333,0,666.66667)" /><path
         id="path62"
         d="m 2390.41,1289.46 c -6.76,0.91 -13.45,2.04 -20.06,3.38 v 0 c 4.61,88.87 6.71,172.58 6.71,251.31 -0.01,56.07 -1.07,109.6 -3.03,160.68 6.32,-6.7 13.25,-13.01 20.91,-18.87 1.52,-45.38 2.33,-92.63 2.32,-141.81 0,-79.78 -2.13,-164.61 -6.85,-254.69 v 0"
         style="fill:#efc27b;fill-opacity:1;fill-rule:nonzero;stroke:none"
         transform="matrix(0.13333333,0,0,-0.13333333,0,666.66667)" /><path
         id="path63"
         d="m 2595.79,1288.96 v 0 c -4.74,90.27 -6.88,175.26 -6.88,255.18 0,31.93 0.34,63.05 0.99,93.37 6.99,0.45 13.75,1.15 20.27,2.09 -0.69,-30.96 -1.05,-62.79 -1.05,-95.46 0,-78.94 2.1,-162.9 6.75,-252.05 v 0 c -6.63,-1.25 -13.32,-2.3 -20.08,-3.13"
         style="fill:#efc27b;fill-opacity:1;fill-rule:nonzero;stroke:none"
         transform="matrix(0.13333333,0,0,-0.13333333,0,666.66667)" /><path
         id="path64"
         d="m 2820.2,1067.67 c 0,-93.111 -646.13,-93.111 -646.13,0 v 130.73 c 0,10.36 11.77,16.31 20.06,10.1 96.22,-72.04 509.79,-72.04 606.01,0 8.29,6.21 20.06,0.26 20.06,-10.1 v -130.73"
         style="fill:#222b3d;fill-opacity:1;fill-rule:nonzero;stroke:none"
         transform="matrix(0.13333333,0,0,-0.13333333,0,666.66667)" /><path
         id="path65"
         d="m 2687.53,976.172 c 0,-54.871 -380.79,-54.871 -380.79,0 v 77.038 c 0,6.1 6.94,9.61 11.83,5.96 56.7,-42.46 300.43,-42.46 357.14,0 4.88,3.65 11.82,0.14 11.82,-5.96 v -77.038"
         style="fill:#222b3d;fill-opacity:1;fill-rule:nonzero;stroke:none"
         transform="matrix(0.13333333,0,0,-0.13333333,0,666.66667)" /><path
         id="path66"
         d="m 2820.2,1174.26 c 0,-93.11 -646.13,-93.11 -646.13,0 v 130.75 c 0,10.35 11.77,16.31 20.06,10.09 96.22,-72.05 509.79,-72.05 606.01,0 8.29,6.22 20.06,0.26 20.06,-10.09 v -130.75"
         style="fill:#384259;fill-opacity:1;fill-rule:nonzero;stroke:none"
         transform="matrix(0.13333333,0,0,-0.13333333,0,666.66667)" /><path
         id="path67"
         d="m 2820.2,1280.87 c 0,-93.12 -646.13,-93.12 -646.13,0 v 130.73 c 0,10.36 11.77,16.31 20.06,10.1 96.22,-72.04 509.79,-72.04 606.01,0 8.29,6.21 20.06,0.26 20.06,-10.1 v -130.73"
         style="fill:#222b3d;fill-opacity:1;fill-rule:nonzero;stroke:none"
         transform="matrix(0.13333333,0,0,-0.13333333,0,666.66667)" /><path
         id="path69"
         d="m 4161.68,2722.58 c -53.71,0 -97.23,-43.52 -97.23,-97.23 0,53.71 -43.53,97.23 -97.24,97.23 53.71,0 97.24,43.53 97.24,97.24 0,-53.71 43.52,-97.24 97.23,-97.24"
         style="fill:#ffffff;fill-opacity:1;fill-rule:nonzero;stroke:none"
         transform="matrix(0.13333333,0,0,-0.13333333,0,666.66667)" /><path
         id="path70"
         d="m 1817.45,4210.89 c -53.71,0 -97.23,-43.52 -97.23,-97.23 0,53.71 -43.52,97.23 -97.24,97.23 53.72,0 97.24,43.52 97.24,97.23 0,-53.71 43.52,-97.23 97.23,-97.23"
         style="fill:#ffffff;fill-opacity:1;fill-rule:nonzero;stroke:none"
         transform="matrix(0.13333333,0,0,-0.13333333,0,666.66667)" /><path
         id="path71"
         d="m 1892.16,1424.23 c -53.71,0 -97.23,-43.53 -97.23,-97.24 0,53.71 -43.52,97.24 -97.23,97.24 53.71,0 97.23,43.52 97.23,97.23 0,-53.71 43.52,-97.23 97.23,-97.23"
         style="fill:#ffffff;fill-opacity:1;fill-rule:nonzero;stroke:none"
         transform="matrix(0.13333333,0,0,-0.13333333,0,666.66667)" /><path
         id="path72"
         d="m 3250.28,4129.23 c -28.23,0 -51.1,-22.88 -51.1,-51.11 0,28.23 -22.88,51.11 -51.11,51.11 28.23,0 51.11,22.87 51.11,51.11 0,-28.24 22.87,-51.11 51.1,-51.11"
         style="fill:#ffffff;fill-opacity:1;fill-rule:nonzero;stroke:none"
         transform="matrix(0.13333333,0,0,-0.13333333,0,666.66667)" /><path
         id="path73"
         d="m 835.711,2781.24 c -28.231,0 -51.106,-22.87 -51.106,-51.1 0,28.23 -22.875,51.1 -51.101,51.1 28.226,0 51.101,22.88 51.101,51.11 0,-28.23 22.875,-51.11 51.106,-51.11"
         style="fill:#ffffff;fill-opacity:1;fill-rule:nonzero;stroke:none"
         transform="matrix(0.13333333,0,0,-0.13333333,0,666.66667)" /><path
         id="path74"
         d="m 921.746,1582.77 c 208.914,0 378.194,169.35 378.194,378.19 H 921.746 v 378.13 c -208.844,0 -378.125,-169.29 -378.125,-378.13 0,-208.84 169.281,-378.19 378.125,-378.19"
         style="fill:#d66767;fill-opacity:1;fill-rule:nonzero;stroke:none"
         transform="matrix(0.13333333,0,0,-0.13333333,0,666.66667)" /><path
         id="path75"
         d="m 1019.85,2059.06 h 250.3 c 0,138.21 -112.03,250.24 -250.3,250.24 v -250.24"
         style="fill:#5c7fc1;fill-opacity:1;fill-rule:nonzero;stroke:none"
         transform="matrix(0.13333333,0,0,-0.13333333,0,666.66667)" /><path
         id="path76"
         d="m 4086.02,3487.57 28.61,32.69 -133.04,116.44 -28.61,-32.68 133.04,-116.45"
         style="fill:#222b3d;fill-opacity:1;fill-rule:nonzero;stroke:none"
         transform="matrix(0.13333333,0,0,-0.13333333,0,666.66667)" /><path
         id="path77"
         d="m 4047.41,3488.39 202.33,-177.09 c 19.35,-16.93 48.75,-14.97 65.68,4.37 16.93,19.34 14.98,48.74 -4.37,65.67 l -202.34,177.09 c -19.34,16.93 -48.74,14.98 -65.68,-4.36 -16.92,-19.35 -14.97,-48.75 4.38,-65.68"
         style="fill:#5c7fc1;fill-opacity:1;fill-rule:nonzero;stroke:none"
         transform="matrix(0.13333333,0,0,-0.13333333,0,666.66667)" /><path
         id="path78"
         d="m 4326.91,3346.3 c 0,-10.86 -3.76,-21.82 -11.5,-30.63 -16.9,-19.36 -46.33,-21.31 -65.69,-4.36 l -56.99,49.89 c 19.36,-16.94 48.73,-14.99 65.67,4.36 7.76,8.82 11.52,19.73 11.52,30.64 0,12.85 -5.29,25.66 -15.65,34.81 l 56.77,-49.67 c 10.54,-9.18 15.87,-22.09 15.87,-35.04"
         style="fill:#3a61a0;fill-opacity:1;fill-rule:nonzero;stroke:none"
         transform="matrix(0.13333333,0,0,-0.13333333,0,666.66667)" /><path
         id="path79"
         d="m 3782.26,3547.69 c -0.02,0 -0.03,0 -0.04,0 -50.7,0.01 -101.63,16.39 -144.18,49.71 -0.21,0.16 -0.43,0.33 -0.64,0.5 -0.16,0.13 -0.32,0.25 -0.48,0.38 -3.06,2.4 -6.05,4.92 -9,7.5 -53.01,46.4 -80.1,111.37 -80.06,176.67 0.04,54.75 19.15,109.73 58.04,154.17 0.13,0.14 0.26,0.28 0.38,0.43 0.16,0.18 0.33,0.37 0.49,0.55 46.28,52.3 110.81,79.06 175.65,79.08 0.02,0 0.04,0 0.06,0 0.01,0 0.02,0 0.03,0 40.98,0 82.1,-10.69 118.82,-32.37 0.5,-0.29 1.01,-0.59 1.51,-0.89 11.82,-7.15 23.19,-15.37 33.95,-24.79 53.01,-46.39 80.1,-111.37 80.06,-176.66 -0.04,-54.75 -19.15,-109.73 -58.04,-154.17 v 0 c -0.12,-0.13 -0.22,-0.25 -0.33,-0.38 -0.1,-0.1 -0.19,-0.21 -0.29,-0.31 -46.29,-52.53 -110.93,-79.4 -175.88,-79.42 -0.02,0 -0.03,0 -0.05,0 m -27.57,441.22 c -0.42,0 -0.86,-0.02 -1.3,-0.08 -56.68,-7.56 -109.09,-38.47 -142.29,-85.18 -4.73,-6.66 1.16,-14.67 7.14,-14.67 2.09,0 4.18,0.97 5.84,3.31 30.54,42.97 78.07,72.34 130.46,79.33 10.51,1.4 9.93,17.29 0.15,17.29"
         style="fill:#f7ecd7;fill-opacity:1;fill-rule:nonzero;stroke:none"
         transform="matrix(0.13333333,0,0,-0.13333333,0,666.66667)" /><path
         id="path80"
         d="m 3605.9,3936.62 c 75.87,86.69 201.53,104.08 296.94,46.8 11.82,-7.15 23.19,-15.37 33.95,-24.79 97.45,-85.29 107.31,-233.38 22.02,-330.83 -82.71,-94.56 -224.52,-106.71 -321.89,-29.52 -3.06,2.4 -6.05,4.92 -9,7.5 -97.46,85.3 -107.31,233.39 -22.02,330.84 m -3.2,-359.67 c 113.37,-99.22 285.7,-87.76 384.92,25.6 99.22,113.37 87.76,285.7 -25.6,384.92 -113.37,99.22 -285.71,87.76 -384.92,-25.61 -99.22,-113.36 -87.76,-285.7 25.6,-384.91"
         style="fill:#222b3d;fill-opacity:1;fill-rule:nonzero;stroke:none"
         transform="matrix(0.13333333,0,0,-0.13333333,0,666.66667)" /><path
         id="path81"
         d="m 3618.24,3888.98 c -5.98,0 -11.87,8.01 -7.14,14.67 33.2,46.71 85.61,77.62 142.29,85.18 0.44,0.06 0.88,0.08 1.3,0.08 9.78,0 10.36,-15.89 -0.15,-17.29 -52.39,-6.99 -99.92,-36.36 -130.46,-79.33 -1.66,-2.34 -3.75,-3.31 -5.84,-3.31"
         style="fill:#fbf6eb;fill-opacity:1;fill-rule:nonzero;stroke:none"
         transform="matrix(0.13333333,0,0,-0.13333333,0,666.66667)" /><path
         id="path82"
         d="m 4017.43,2123.51 122.86,-481.42 c -189.16,49.71 -384.96,-49.25 -384.96,-49.25 l -128.19,502.35 c 205.01,118.13 390.29,28.32 390.29,28.32"
         style="fill:#56998a;fill-opacity:1;fill-rule:nonzero;stroke:none"
         transform="matrix(0.13333333,0,0,-0.13333333,0,666.66667)" /><path
         id="path83"
         d="m 4017.43,2123.51 122.86,-481.42 c 142.2,134.28 361.47,141.25 361.47,141.25 l -128.19,502.34 c -236.56,5.44 -356.14,-162.17 -356.14,-162.17"
         style="fill:#56998a;fill-opacity:1;fill-rule:nonzero;stroke:none"
         transform="matrix(0.13333333,0,0,-0.13333333,0,666.66667)" /><path
         id="path84"
         d="m 3640.23,2138.39 -4.79,-46.41 123.33,-483.27 c 0,0 214.63,109.83 378.25,46.18 l -129.14,506.03 -367.65,-22.53"
         style="fill:#f0f1f2;fill-opacity:1;fill-rule:nonzero;stroke:none"
         transform="matrix(0.13333333,0,0,-0.13333333,0,666.66667)" /><path
         id="path85"
         d="m 3758.77,1608.71 33.14,75.06 324.61,55.56 20.5,-84.44 c 0,0 -151.51,60.46 -378.25,-46.18"
         style="fill:#cfd0d1;fill-opacity:1;fill-rule:nonzero;stroke:none"
         transform="matrix(0.13333333,0,0,-0.13333333,0,666.66667)" /><path
         id="path86"
         d="m 4341.43,2317.34 26.45,-38.45 123.34,-483.27 c 0,0 -241.04,-6.43 -354.14,-140.71 l -129.13,506.03 333.48,156.4"
         style="fill:#f0f1f2;fill-opacity:1;fill-rule:nonzero;stroke:none"
         transform="matrix(0.13333333,0,0,-0.13333333,0,666.66667)" /><path
         id="path87"
         d="m 4491.22,1795.62 -65.07,50.01 -311.53,-106.78 22.46,-83.94 c 0,0 104,125.65 354.14,140.71"
         style="fill:#cfd0d1;fill-opacity:1;fill-rule:nonzero;stroke:none"
         transform="matrix(0.13333333,0,0,-0.13333333,0,666.66667)" /><path
         id="path88"
         d="m 4007.88,2160.93 c 0,0 -176.03,92.16 -367.65,-22.54 l 128.2,-502.34 c 0,0 183.2,95.74 362.31,43.46 132.15,131.72 338.83,135.46 338.83,135.46 l -128.2,502.35 c -223.16,8.87 -333.49,-156.39 -333.49,-156.39"
         style="fill:#ffffff;fill-opacity:1;fill-rule:nonzero;stroke:none"
         transform="matrix(0.13333333,0,0,-0.13333333,0,666.66667)" /><path
         id="path89"
         d="m 4007.88,2160.92 122.86,-481.41 c 0,0 49.56,45.56 83.95,63.46 0,0 -139.89,135.19 -194.61,435.89 l -12.2,-17.94"
         style="fill:#f0f1f2;fill-opacity:1;fill-rule:nonzero;stroke:none"
         transform="matrix(0.13333333,0,0,-0.13333333,0,666.66667)" /><path
         id="path90"
         d="m 4186.03,2160.61 -416.62,250.71 -22.6,-37.57 416.62,-250.69 52.43,-5.96 -29.83,43.51"
         style="fill:#e79c82;fill-opacity:1;fill-rule:nonzero;stroke:none"
         transform="matrix(0.13333333,0,0,-0.13333333,0,666.66667)" /><path
         id="path91"
         d="m 3752.47,2383.15 405.51,-244.01 5.45,-16.08 -416.62,250.69 5.66,9.4"
         style="fill:#e07979;fill-opacity:1;fill-rule:nonzero;stroke:none"
         transform="matrix(0.13333333,0,0,-0.13333333,0,666.66667)" /><path
         id="path92"
         d="m 3763.76,2401.92 405.52,-244.01 16.75,2.7 -416.62,250.71 -5.65,-9.4"
         style="fill:#e07070;fill-opacity:1;fill-rule:nonzero;stroke:none"
         transform="matrix(0.13333333,0,0,-0.13333333,0,666.66667)" /><path
         id="path93"
         d="m 4157.98,2139.14 16.75,2.69 -5.45,16.08 -405.52,244.01 -5.65,-9.39 -5.64,-9.38 405.51,-244.01"
         style="fill:#e07070;fill-opacity:1;fill-rule:nonzero;stroke:none"
         transform="matrix(0.13333333,0,0,-0.13333333,0,666.66667)" /><path
         id="path94"
         d="m 4169.28,2157.91 -405.52,244.01 5.65,9.4 416.62,-250.71 -16.75,-2.7"
         style="fill:#cd4444;fill-opacity:1;fill-rule:nonzero;stroke:none"
         transform="matrix(0.13333333,0,0,-0.13333333,0,666.66667)" /><path
         id="path95"
         d="m 4157.98,2139.14 16.75,2.69 -5.45,16.08 -405.52,244.01 -5.65,-9.39 -5.64,-9.38 405.51,-244.01"
         style="fill:#d66767;fill-opacity:1;fill-rule:nonzero;stroke:none"
         transform="matrix(0.13333333,0,0,-0.13333333,0,666.66667)" /><path
         id="path96"
         d="m 4215.86,2117.1 -17.7,2.01 c -1.13,9.91 7.31,13.12 7.31,13.12 l 10.39,-15.13"
         style="fill:#000000;fill-opacity:1;fill-rule:nonzero;stroke:none"
         transform="matrix(0.13333333,0,0,-0.13333333,0,666.66667)" /><path
         id="path97"
         d="m 3742.37,2431.66 38.93,-23.42 -27.14,-45.11 -38.93,23.42 27.14,45.11"
         style="fill:#ffffff;fill-opacity:1;fill-rule:nonzero;stroke:none"
         transform="matrix(0.13333333,0,0,-0.13333333,0,666.66667)" /><path
         id="path98"
         d="m 3720.17,2440.37 20.15,-12.12 -23.03,-38.28 -20.15,12.13 c -8.36,5.02 -11.05,15.88 -6.03,24.23 l 4.82,8 c 5.03,8.36 15.88,11.06 24.24,6.04"
         style="fill:#d66767;fill-opacity:1;fill-rule:nonzero;stroke:none"
         transform="matrix(0.13333333,0,0,-0.13333333,0,666.66667)" /><path
         id="path99"
         d="m 3742.37,2431.66 38.93,-23.42 -7.46,-12.39 -38.91,23.43 7.44,12.38"
         style="fill:#f0c6b9;fill-opacity:1;fill-rule:nonzero;stroke:none"
         transform="matrix(0.13333333,0,0,-0.13333333,0,666.66667)" /><path
         id="path100"
         d="m 1266.91,3207.24 c 28.96,26.17 52.45,59.39 67.52,98.44 1.53,4.01 2.98,8.03 4.31,12.08 -1.32,-4.03 -2.76,-8.05 -4.3,-12.05 -15.08,-39.1 -38.56,-72.31 -67.53,-98.47 m 37.56,94.46 c 2.6,5.44 5.02,11.03 7.23,16.76 16.43,42.56 19.17,87.61 10.34,129.91 -58.12,38.03 -67.52,13.02 -143.02,35.46 -49.42,14.77 -54.55,45.3 -76.92,67.52 l 110.71,-46.42 40.22,95.92 c 81.69,-64.39 118.08,-174.87 87.83,-276.32 0.92,3.07 1.76,6.16 2.53,9.27 -11.49,-10.72 -24.5,-21.67 -38.92,-32.1 m -455.681,20.44 c -1.398,3.14 -2.562,6.42 -3.465,9.8 -14.195,53.12 -11.578,111.2 11.336,165.85 41.348,98.61 136.957,157.99 237.59,157.99 10.97,0 21.98,-0.7 33,-2.14 l -38.46,-91.73 c -10.75,6.67 -25.03,11.75 -45.68,14.15 -34.83,4.08 -54.626,14.01 -65.872,24.69 -41.261,-24.44 -75.293,-61.9 -95.285,-109.58 -17.226,-41.09 -21.723,-84.33 -15.242,-125.32 -9.918,9.22 -19.922,19.03 -30.039,29.48 0.273,-21.59 3.168,-42.86 8.664,-63.38 0.894,-3.39 2.055,-6.66 3.453,-9.81"
         style="fill:#fefcf8;fill-opacity:1;fill-rule:nonzero;stroke:none"
         transform="matrix(0.13333333,0,0,-0.13333333,0,666.66667)" /><path
         id="path101"
         d="m 1212.81,3504.93 -110.71,46.42 c -3.83,3.8 -8.16,7.37 -13.31,10.56 l 38.46,91.73 74.87,178.57 49.32,-20.68 -49.31,20.68 c 17.19,-23.28 114.44,-79.83 114.44,-79.83 l 8.86,21.14 -72.4,-172.67 -40.22,-95.92"
         style="fill:#fefcf8;fill-opacity:1;fill-rule:nonzero;stroke:none"
         transform="matrix(0.13333333,0,0,-0.13333333,0,666.66667)" /><path
         id="path102"
         d="m 1347.13,3773.81 c -3.69,0 -7.44,0.72 -11.06,2.24 l -8.14,3.41 v 0 l -76.49,32.07 -49.32,20.68 -8.14,3.42 c -14.58,6.12 -21.44,22.88 -15.33,37.45 4.6,10.96 15.22,17.56 26.4,17.56 3.69,0 7.44,-0.72 11.05,-2.23 l 142.1,-59.58 c 14.58,-6.12 21.44,-22.89 15.33,-37.46 -4.6,-10.96 -15.22,-17.56 -26.4,-17.56"
         style="fill:#fefcf8;fill-opacity:1;fill-rule:nonzero;stroke:none"
         transform="matrix(0.13333333,0,0,-0.13333333,0,666.66667)" /><path
         id="path103"
         d="m 1311.7,3318.46 c -20.14,-52.17 -56.92,-92.81 -101.7,-118.16 -16.8,-9.55 -37.01,-10.41 -54.8,-2.94 l -246.884,103.52 c -17.796,7.46 -31.531,22.54 -36.539,41.12 -12.82,47.78 -10.433,100.02 10.176,149.17 19.992,47.68 54.024,85.14 95.285,109.58 11.246,-10.68 31.042,-20.61 65.872,-24.69 88.31,-10.25 60.36,-69.66 135.91,-92.23 75.5,-22.44 84.9,2.57 143.02,-35.46 8.83,-42.3 6.09,-87.35 -10.34,-129.91"
         style="fill:#56998a;fill-opacity:1;fill-rule:nonzero;stroke:none"
         transform="matrix(0.13333333,0,0,-0.13333333,0,666.66667)" /><path
         id="path104"
         d="m 992.688,3528.71 c -3.09,-7.37 -11.575,-10.84 -18.942,-7.75 -7.375,3.09 -10.84,11.58 -7.75,18.94 3.094,7.38 11.57,10.84 18.942,7.75 7.367,-3.08 10.839,-11.56 7.75,-18.94"
         style="fill:#69af9c;fill-opacity:1;fill-rule:nonzero;stroke:none"
         transform="matrix(0.13333333,0,0,-0.13333333,0,666.66667)" /><path
         id="path105"
         d="m 1139.55,3283.87 c -3.09,-7.37 -11.57,-10.84 -18.94,-7.75 -7.37,3.09 -10.84,11.57 -7.75,18.94 3.09,7.37 11.57,10.84 18.94,7.75 7.37,-3.09 10.84,-11.57 7.75,-18.94"
         style="fill:#69af9c;fill-opacity:1;fill-rule:nonzero;stroke:none"
         transform="matrix(0.13333333,0,0,-0.13333333,0,666.66667)" /><path
         id="path106"
         d="m 1222.86,3424.55 c -1.7,-4.06 -6.36,-5.96 -10.42,-4.26 -4.05,1.7 -5.96,6.36 -4.26,10.41 1.7,4.06 6.36,5.97 10.42,4.27 4.05,-1.7 5.96,-6.36 4.26,-10.42"
         style="fill:#69af9c;fill-opacity:1;fill-rule:nonzero;stroke:none"
         transform="matrix(0.13333333,0,0,-0.13333333,0,666.66667)" /><path
         id="path107"
         d="m 1016.66,3311.08 c -1.7,-4.06 -6.37,-5.97 -10.42,-4.27 -4.05,1.7 -5.96,6.37 -4.26,10.42 1.7,4.06 6.36,5.96 10.41,4.26 4.06,-1.7 5.97,-6.36 4.27,-10.41"
         style="fill:#69af9c;fill-opacity:1;fill-rule:nonzero;stroke:none"
         transform="matrix(0.13333333,0,0,-0.13333333,0,666.66667)" /><path
         id="path108"
         d="m 1104.73,3418.04 c -5.96,-14.21 -22.3,-20.89 -36.51,-14.93 -14.2,5.95 -20.88,22.29 -14.93,36.5 5.95,14.2 22.3,20.88 36.5,14.93 14.21,-5.95 20.89,-22.3 14.94,-36.5"
         style="fill:#69af9c;fill-opacity:1;fill-rule:nonzero;stroke:none"
         transform="matrix(0.13333333,0,0,-0.13333333,0,666.66667)" /><path
         id="path109"
         d="m 1260.69,3322.01 c -4.65,-11.1 -17.43,-16.33 -28.53,-11.67 -11.09,4.65 -16.32,17.43 -11.67,28.52 4.66,11.1 17.43,16.33 28.53,11.67 11.1,-4.65 16.32,-17.42 11.67,-28.52"
         style="fill:#69af9c;fill-opacity:1;fill-rule:nonzero;stroke:none"
         transform="matrix(0.13333333,0,0,-0.13333333,0,666.66667)" /><path
         id="path110"
         d="m 974.602,3397.02 c -4.336,-10.34 -16.231,-15.21 -26.575,-10.87 -10.339,4.34 -15.207,16.23 -10.871,26.57 4.336,10.34 16.235,15.21 26.574,10.88 10.34,-4.34 15.208,-16.24 10.872,-26.58"
         style="fill:#69af9c;fill-opacity:1;fill-rule:nonzero;stroke:none"
         transform="matrix(0.13333333,0,0,-0.13333333,0,666.66667)" /><path
         id="path111"
         d="m 1325.43,3773.52 2.5,5.94 v 0 l -2.5,-5.94"
         style="fill:#bcbda1;fill-opacity:1;fill-rule:nonzero;stroke:none"
         transform="matrix(0.13333333,0,0,-0.13333333,0,666.66667)" /><path
         id="path112"
         d="m 1316.57,3752.38 c 0,0 -97.25,56.55 -114.44,79.83 l 49.31,-20.68 76.49,-32.07 -2.5,-5.94 -8.86,-21.14"
         style="fill:#c3d1ca;fill-opacity:1;fill-rule:nonzero;stroke:none"
         transform="matrix(0.13333333,0,0,-0.13333333,0,666.66667)" /><path
         id="path113"
         d="m 1327.93,3779.46 v 0 l -76.49,32.07 76.49,-32.07 v 0"
         style="fill:#c3d1ca;fill-opacity:1;fill-rule:nonzero;stroke:none"
         transform="matrix(0.13333333,0,0,-0.13333333,0,666.66667)" /><path
         id="path114"
         d="m 1187.82,3165.55 c -9.28,0 -18.6,1.86 -27.37,5.54 L 885.898,3286.2 c -16.511,6.93 -29.937,19.77 -37.109,35.94 7.18,-16.15 20.59,-28.99 37.133,-35.92 L 1160.47,3171.1 c 8.75,-3.67 18.06,-5.52 27.33,-5.52 11.62,0 23.18,2.9 33.51,8.76 16.26,9.22 31.57,20.23 45.6,32.9 -14.03,-12.68 -29.33,-23.7 -45.59,-32.95 -10.34,-5.84 -21.89,-8.74 -33.5,-8.74 m 150.92,152.21 c 0.74,2.25 1.45,4.52 2.12,6.77 -0.67,-2.26 -1.37,-4.52 -2.12,-6.77"
         style="fill:#bcbda1;fill-opacity:1;fill-rule:nonzero;stroke:none"
         transform="matrix(0.13333333,0,0,-0.13333333,0,666.66667)" /><path
         id="path115"
         d="m 1187.8,3165.58 c -9.27,0 -18.58,1.85 -27.33,5.52 l -274.548,115.12 c -16.543,6.93 -29.953,19.77 -37.133,35.92 -1.398,3.15 -2.559,6.42 -3.453,9.81 -5.496,20.52 -8.391,41.79 -8.664,63.38 10.117,-10.45 20.121,-20.26 30.039,-29.48 1.269,-8.05 2.965,-16.01 5.066,-23.85 5.008,-18.58 18.743,-33.66 36.539,-41.12 L 1155.2,3197.36 c 7.9,-3.32 16.28,-4.99 24.63,-4.99 10.44,0 20.83,2.62 30.17,7.93 39.86,22.57 73.38,57.25 94.47,101.4 14.42,10.43 27.43,21.38 38.92,32.1 -0.77,-3.11 -1.61,-6.2 -2.53,-9.27 -0.67,-2.25 -1.38,-4.52 -2.12,-6.77 -1.33,-4.05 -2.78,-8.07 -4.31,-12.08 -15.07,-39.05 -38.56,-72.27 -67.52,-98.44 -14.03,-12.67 -29.34,-23.68 -45.6,-32.9 -10.33,-5.86 -21.89,-8.76 -33.51,-8.76"
         style="fill:#c3d1ca;fill-opacity:1;fill-rule:nonzero;stroke:none"
         transform="matrix(0.13333333,0,0,-0.13333333,0,666.66667)" /><path
         id="path116"
         d="m 1179.83,3192.37 c -8.35,0 -16.73,1.67 -24.63,4.99 l -246.884,103.52 c -17.796,7.46 -31.531,22.54 -36.539,41.12 -2.101,7.84 -3.797,15.8 -5.066,23.85 99.144,-92.18 188.109,-124.19 263.809,-124.19 70.19,0 128.97,27.5 173.95,60.04 -21.09,-44.15 -54.61,-78.83 -94.47,-101.4 -9.34,-5.31 -19.73,-7.93 -30.17,-7.93"
         style="fill:#4e8c7d;fill-opacity:1;fill-rule:nonzero;stroke:none"
         transform="matrix(0.13333333,0,0,-0.13333333,0,666.66667)" /></g></g></svg>
